# xmcd
#
# Track frame offsets:
# 182
# 11985
# 22942
# 36490
# 50180
# 64457
# 78732
# 92825
# 105870
# 119020
# 133852
# 148412
# 160597
# 174440
# 188245
# 202892
#
# Disc length: 2886 seconds
#
# Revision: 0
# Processed by: cddbd v1.4PL0 Copyright (c) Steve Scherf et al.
# Submitted via: inCDius 1.1
#
DISCID=eb0b4410
DTITLE=John Lee Hooker - Boogie Chillen
DYEAR=1900
DGENRE=
TTITLE0=Shake, Holler and Run
TTITLE1=Gotta Boogie
TTITLE2=Ride 'Til I Die
TTITLE3=Hobo Blues
TTITLE4=Half a Stranger
TTITLE5=Boogie Chillen
TTITLE6=Bad Boy
TTITLE7=Down Child
TTITLE8=Rock House Boogie
TTITLE9=Playin' the Races
TTITLE10=Cool Little Car
TTITLE11=Hug and Squeeze
TTITLE12=Tease Me Baby
TTITLE13=I'm In the Mood
TTITLE14=Looking for a Woman
TTITLE15=Too Much Boogie
EXTD=Official Record Company APS, Denmark 86 029\n\nMonaural
EXTT0=
EXTT1=
EXTT2=
EXTT3=
EXTT4=
EXTT5=
EXTT6=
EXTT7=
EXTT8=
EXTT9=
EXTT10=
EXTT11=
EXTT12=
EXTT13=
EXTT14=
EXTT15=
PLAYORDER=
